<svg width="11" height="14" viewBox="0 0 11 14" fill="none" xmlns="http://www.w3.org/2000/svg">
<path d="M10.875 6H6.5C6.10217 6 5.72064 5.84196 5.43934 5.56066C5.15803 5.27935 5 4.89782 5 4.5V0.125C5 0.0918479 4.98683 0.0600537 4.96339 0.0366117C4.93995 0.0131696 4.90815 0 4.875 0H2C1.46957 0 0.960859 0.210714 0.585786 0.585786C0.210714 0.960859 0 1.46957 0 2V12C0 12.5304 0.210714 13.0391 0.585786 13.4142C0.960859 13.7893 1.46957 14 2 14H9C9.53043 14 10.0391 13.7893 10.4142 13.4142C10.7893 13.0391 11 12.5304 11 12V6.125C11 6.09185 10.9868 6.06005 10.9634 6.03661C10.9399 6.01317 10.9082 6 10.875 6ZM8 11H3C2.86739 11 2.74021 10.9473 2.64645 10.8535C2.55268 10.7598 2.5 10.6326 2.5 10.5C2.5 10.3674 2.55268 10.2402 2.64645 10.1464C2.74021 10.0527 2.86739 10 3 10H8C8.13261 10 8.25978 10.0527 8.35355 10.1464C8.44732 10.2402 8.5 10.3674 8.5 10.5C8.5 10.6326 8.44732 10.7598 8.35355 10.8535C8.25978 10.9473 8.13261 11 8 11ZM8 8.5H3C2.86739 8.5 2.74021 8.44732 2.64645 8.35355C2.55268 8.25978 2.5 8.1326 2.5 8C2.5 7.86739 2.55268 7.74021 2.64645 7.64644C2.74021 7.55268 2.86739 7.5 3 7.5H8C8.13261 7.5 8.25978 7.55268 8.35355 7.64644C8.44732 7.74021 8.5 7.86739 8.5 8C8.5 8.1326 8.44732 8.25978 8.35355 8.35355C8.25978 8.44732 8.13261 8.5 8 8.5Z" fill="#2D3748"/>
</svg>
