<svg width="25" height="9" viewBox="0 0 25 9" fill="none" xmlns="http://www.w3.org/2000/svg">
<path fill-rule="evenodd" clip-rule="evenodd" d="M12.9294 2.77996C12.9151 3.99124 13.9316 4.66719 14.6973 5.06909C15.4841 5.48149 15.7483 5.74592 15.7453 6.11462C15.7393 6.67903 15.1177 6.92805 14.5359 6.93774C13.5209 6.9547 12.9309 6.64261 12.4617 6.40652L12.0961 8.24926C12.5668 8.48299 13.4384 8.68677 14.3423 8.69565C16.4638 8.69565 17.8517 7.56765 17.8593 5.81869C17.8676 3.5991 15.0089 3.47617 15.0284 2.48402C15.0351 2.18324 15.3016 1.86219 15.8857 1.78053C16.1747 1.73933 16.9727 1.70776 17.8773 2.15651L18.2324 0.373623C17.7459 0.182772 17.1206 0 16.3421 0C14.3452 0 12.9407 1.14335 12.9294 2.77996ZM21.6444 0.153624C21.257 0.153624 20.9304 0.397051 20.7848 0.770606L17.7542 8.56465H19.8742L20.2961 7.30887H22.8867L23.1315 8.56465H25L23.3694 0.153624H21.6444ZM21.9409 2.42579L22.5527 5.58415H20.8771L21.9409 2.42579ZM10.359 0.153624L8.68794 8.56465H10.7081L12.3784 0.153624H10.359ZM7.37044 0.153624L5.26769 5.87847L4.41713 1.01073C4.31731 0.467399 3.92319 0.153624 3.4855 0.153624H0.0480623L0 0.397858C0.705688 0.562791 1.50744 0.828837 1.99312 1.11346C2.29037 1.28728 2.37525 1.43929 2.47281 1.8525L4.08381 8.56465H6.21888L9.49194 0.153624H7.37044Z" fill="#4318FF"/>
</svg>
